<svg style="width:100%;height:100%;" viewBox="0 0 71 71" fill="none" xmlns="http://www.w3.org/2000/svg">
<path d="M70.7373 22.6884C69.8166 20.4693 66.9187 19.1415 62.9828 19.1415C62.2218 19.147 61.4615 19.1911 60.7049 19.2735C62.7434 17.7903 64.2352 15.6758 64.9489 13.2581C65.1268 12.2848 65.0516 11.2821 64.7304 10.3463C64.4092 9.41047 63.8529 8.57287 63.1149 7.91388C62.4472 7.17363 61.6012 6.6165 60.6574 6.29549C59.7136 5.97448 58.7033 5.90026 57.7227 6.07991C55.3058 6.78737 53.1891 8.27106 51.6997 10.3017C51.7808 9.54142 51.8237 8.77752 51.8281 8.01292C51.8281 4.07721 50.5039 1.17953 48.281 0.262538C47.4523 -0.0410135 46.5503 -0.0824136 45.6973 0.143951C44.8443 0.370315 44.0815 0.853493 43.5124 1.52798C42.9072 2.12952 41.1758 3.8828 40.3688 13.1664C38.5617 12.6526 36.6388 12.7205 34.8725 13.3604C33.1061 14.0002 31.5859 15.1797 30.5272 16.7316L0.995134 58.913C0.253159 59.9726 -0.0917674 61.2597 0.0209295 62.5482C0.133627 63.8368 0.696741 65.0445 1.61138 65.9592L5.04108 69.3887C5.9558 70.3033 7.16354 70.8664 8.45217 70.9791C9.74081 71.0918 11.028 70.7469 12.0876 70.0049L54.271 40.4743C55.8252 39.4144 57.0054 37.8913 57.6436 36.1217C58.2818 34.3521 58.3454 32.4263 57.8254 30.6185C63.9952 30.083 67.9055 29.0266 69.4607 27.4714C70.1393 26.9019 70.6258 26.1373 70.8543 25.2814C71.0827 24.4256 71.0418 23.5202 70.7373 22.6884ZM58.427 9.68183C58.8209 9.61463 59.2257 9.65594 59.598 9.80133C59.9702 9.94672 60.2958 10.1907 60.5399 10.5071C60.8484 10.7463 61.0864 11.0646 61.2285 11.4282C61.3706 11.7919 61.4115 12.1872 61.3469 12.5722C60.7783 15.5616 54.7442 19.3249 50.4158 21.3753L49.6235 20.583C51.6667 16.2585 55.4265 10.2504 58.427 9.68183ZM46.1241 4.11755C46.5093 3.75076 46.7991 3.60771 46.9018 3.64806C47.3016 3.81311 48.1783 5.14091 48.1783 8.00925C48.0158 11.2265 47.4715 14.4131 46.557 17.5019L44.5432 15.4882C44.3597 15.3048 44.1433 15.1764 43.9452 15.0114C44.4404 7.70481 45.5335 4.70809 46.1241 4.11755ZM9.98572 66.9825C9.6323 67.2305 9.20274 67.3458 8.77265 67.3083C8.34256 67.2707 7.9395 67.0826 7.63445 66.7771L4.20475 63.3476C3.90223 63.0421 3.71666 62.64 3.68045 62.2116C3.64425 61.7832 3.75971 61.3557 4.00667 61.0038L9.53454 53.1103L17.8795 61.4806L9.98572 66.9825ZM52.1692 37.4482L45.3355 42.2165L38.9493 35.827C38.6054 35.4826 38.1387 35.2889 37.652 35.2886C37.1653 35.2883 36.6984 35.4813 36.3541 35.8251C36.0097 36.169 35.816 36.6356 35.8157 37.1223C35.8153 37.609 36.0083 38.0758 36.3522 38.4202L42.2873 44.3549L33.1169 50.7629L26.5657 44.2119C26.2197 43.8778 25.7565 43.693 25.2756 43.6972C24.7947 43.7013 24.3347 43.8942 23.9946 44.2342C23.6546 44.5743 23.4617 45.0343 23.4575 45.5151C23.4533 45.996 23.6382 46.4593 23.9723 46.8051L30.0834 52.9196L20.9131 59.3275L11.6621 50.0586L26.6133 28.7001L30.894 32.9806C31.0632 33.1558 31.2656 33.2955 31.4894 33.3916C31.7131 33.4878 31.9538 33.5383 32.1973 33.5405C32.4409 33.5426 32.6824 33.4962 32.9078 33.404C33.1332 33.3117 33.3379 33.1756 33.5101 33.0034C33.6824 32.8312 33.8185 32.6264 33.9108 32.401C34.003 32.1756 34.0494 31.9341 34.0473 31.6906C34.0451 31.4471 33.9946 31.2065 33.8984 30.9827C33.8023 30.759 33.6626 30.5566 33.4874 30.3874L28.7519 25.6484L33.5204 18.815C33.9809 18.1552 34.5813 17.605 35.2787 17.2037C35.9761 16.8024 36.7535 16.5598 37.5554 16.4932C37.7168 16.4932 37.8782 16.4712 38.0359 16.4712C39.4941 16.4715 40.8926 17.0507 41.9241 18.0814L52.9028 29.0596C53.028 29.1976 53.1444 29.3434 53.2513 29.4961C53.3546 29.8494 53.5647 30.162 53.8529 30.3911C54.494 31.569 54.6763 32.9426 54.3647 34.247C54.0532 35.5515 53.2698 36.6944 52.1655 37.4555L52.1692 37.4482ZM66.871 24.8598C66.2731 25.454 63.2689 26.5471 55.9804 27.0606C55.8153 26.8625 55.6833 26.6461 55.4999 26.4627L53.486 24.449C56.5736 23.525 59.7606 22.9733 62.9792 22.8058C65.8476 22.8058 67.1755 23.6861 67.3442 24.0859C67.3846 24.1812 67.2599 24.4783 66.8747 24.8671L66.871 24.8598Z" fill="#FF7E4E"/>
</svg>
