<svg style="width:100%;height:100%;" viewBox="0 0 304 335" fill="none" xmlns="http://www.w3.org/2000/svg">
<circle cx="152" cy="173" r="152" fill="#DDDDDD"/>
<path d="M221.284 314.913H99.3468C91.3236 314.913 84.8047 308.394 84.8047 300.371V51.3991C84.8047 43.3758 91.3236 36.8569 99.3468 36.8569H221.284C229.307 36.8569 235.826 43.3758 235.826 51.3991V300.371C235.826 308.394 229.307 314.913 221.284 314.913Z" fill="#17C690"/>
<path d="M130.774 294.103H106.37C103.361 294.103 100.938 291.679 100.938 288.67V264.35C100.938 261.341 103.361 258.917 106.37 258.917H130.774C133.783 258.917 136.206 261.341 136.206 264.35V288.67C136.206 291.679 133.783 294.103 130.774 294.103Z" fill="#69BFFF"/>
<path d="M172.141 294.103H147.737C144.728 294.103 142.305 291.679 142.305 288.67V264.35C142.305 261.341 144.728 258.917 147.737 258.917H172.141C175.15 258.917 177.574 261.341 177.574 264.35V288.67C177.574 291.679 175.15 294.103 172.141 294.103Z" fill="#69BFFF"/>
<path d="M214.344 294.103H189.94C186.932 294.103 184.508 291.679 184.508 288.67V264.35C184.508 261.341 186.932 258.917 189.94 258.917H214.344C217.353 258.917 219.777 261.341 219.777 264.35V288.67C219.693 291.679 217.269 294.103 214.344 294.103Z" fill="#69BFFF"/>
<path d="M225.296 47.4709H208.163C206.575 47.4709 205.238 48.8082 205.238 50.3961V58.5029C205.238 62.431 202.062 65.6068 198.134 65.6068H122.582C118.654 65.6068 115.478 62.431 115.478 58.5029V50.3961C115.478 48.8082 114.141 47.4709 112.553 47.4709H96.0049C94.6677 47.4709 93.6648 48.5574 93.6648 49.8111L93.4141 300.371C93.4141 301.708 94.5005 302.711 95.7542 302.711H225.046C226.383 302.711 227.386 301.624 227.386 300.371L227.636 49.8111C227.636 48.5574 226.55 47.4709 225.296 47.4709Z" fill="#D1E9FF"/>
<path d="M141.223 84.4114H214.017C216.859 84.4114 219.199 86.7515 219.199 89.5931V156.286C219.199 159.128 216.859 161.468 214.017 161.468H141.223C138.381 161.468 136.041 159.128 136.041 156.286V89.5931C135.958 86.6679 138.298 84.4114 141.223 84.4114Z" fill="white"/>
<path d="M185.349 129.709C184.012 129.793 182.675 130.294 181.672 131.297C179.499 133.47 179.416 136.98 181.589 139.237C182.842 140.574 186.603 144.335 187.857 145.672C190.03 147.845 193.54 147.929 195.796 145.756C196.799 144.753 197.384 143.416 197.468 142.162C199.557 143.165 202.065 142.831 203.82 141.159C205.993 138.986 206.076 135.476 203.903 133.22C203.569 132.885 203.235 132.635 202.9 132.384C203.235 132.133 203.652 131.882 203.903 131.632C206.076 129.459 206.16 125.948 203.987 123.692C201.814 121.435 198.304 121.435 196.047 123.608C195.713 123.943 195.462 124.277 195.211 124.611C194.961 124.277 194.71 123.859 194.459 123.608C193.373 122.522 191.952 121.686 190.531 121.937C182.759 123.023 185.349 129.709 185.349 129.709Z" fill="#00D4A6"/>
<path d="M177.575 150.854C177.241 150.854 176.823 150.687 176.572 150.436C175.987 149.851 176.071 149.015 176.572 148.43L194.959 130.378C195.544 129.793 196.379 129.877 196.965 130.378C197.55 130.963 197.466 131.799 196.965 132.384L178.578 150.436C178.327 150.77 177.909 150.854 177.575 150.854Z" fill="#00A6BF"/>
<path d="M164.873 121.602C163.452 121.352 162.031 122.104 160.861 123.19C160.527 123.525 160.276 123.859 160.026 124.193C159.775 123.859 159.524 123.441 159.274 123.19C157.101 121.017 153.59 120.934 151.334 123.107C149.077 125.28 149.077 128.79 151.25 131.047C151.585 131.381 151.919 131.632 152.253 131.882C151.919 132.133 151.501 132.384 151.25 132.634C149.077 134.807 148.994 138.318 151.167 140.574C152.838 142.329 155.345 142.664 157.435 141.744C157.518 143.081 158.02 144.419 159.023 145.422C161.196 147.594 164.706 147.678 166.962 145.505C168.3 144.251 172.061 140.491 173.398 139.237C175.571 137.064 175.654 133.554 173.481 131.297C172.478 130.294 171.141 129.709 169.888 129.626C169.888 129.542 172.646 122.94 164.873 121.602Z" fill="#00D4A6"/>
<path d="M177.158 150.854C177.492 150.854 177.91 150.687 178.161 150.436C178.746 149.851 178.746 149.015 178.161 148.43L160.109 130.044C159.524 129.459 158.688 129.459 158.103 130.044C157.518 130.629 157.518 131.465 158.103 132.05L176.155 150.436C176.489 150.687 176.824 150.854 177.158 150.854Z" fill="#00A6BF"/>
<path d="M193.035 110.571C193.035 106.726 189.942 103.467 186.098 103.467C185.513 103.467 185.011 103.55 184.51 103.634C184.677 103.132 184.761 102.547 184.761 102.046C184.761 98.2013 181.668 94.9419 177.824 94.9419C173.979 94.9419 170.72 98.0342 170.72 101.879C170.72 102.464 170.804 102.965 170.887 103.467C170.386 103.299 169.801 103.216 169.299 103.216C165.455 103.216 162.195 106.308 162.195 110.153C162.195 113.161 164.034 115.752 166.708 116.755C165.622 118.009 164.87 119.597 164.87 121.435C164.87 125.28 167.962 128.539 171.807 128.539C174.147 128.539 180.749 128.623 183.089 128.623C186.934 128.623 190.193 125.531 190.193 121.686C190.193 119.847 189.525 118.259 188.438 117.006C191.029 116.17 193.035 113.663 193.035 110.571Z" fill="#00E8B6"/>
<path d="M177.155 150.687C176.403 150.687 175.734 150.018 175.734 149.266L176.152 108.983C176.152 108.231 176.821 107.562 177.573 107.562C178.325 107.562 178.994 108.231 178.994 108.983L178.576 149.266C178.576 150.102 177.991 150.687 177.155 150.687Z" fill="#00A6BF"/>
<path d="M72.1895 168.739H144.984C147.825 168.739 150.165 171.079 150.165 173.92V240.614C150.165 243.455 147.825 245.795 144.984 245.795H72.1895C69.3479 245.795 67.0078 243.455 67.0078 240.614V173.92C67.0078 171.079 69.3479 168.739 72.1895 168.739Z" fill="white"/>
<path d="M130.693 204.76C130.693 198.074 129.523 194.062 121.75 191.806C115.482 189.967 112.724 193.394 108.127 193.394C102.862 193.394 100.689 190.803 94.7553 193.06C89.7407 194.982 86.6484 198.743 86.6484 204.844C86.6484 212.867 90.7436 229.749 99.2684 229.833C104.951 229.916 104.784 227.075 108.712 227.075C112.223 227.075 111.888 229.916 118.156 229.833C127.183 229.749 130.693 213.118 130.693 204.76Z" fill="#FF0000"/>
<path d="M108.376 199.745C108.376 199.745 102.776 193.979 107.624 185.287C107.791 184.953 108.125 184.785 108.459 184.869L111.05 185.287C111.635 185.37 111.97 186.039 111.635 186.54C110.298 188.546 107.958 193.143 109.797 199.077L108.376 199.745Z" fill="#450000"/>
<path d="M108.208 200.665C104.53 200.665 101.689 198.325 101.689 198.325C101.104 197.907 101.104 197.071 101.522 196.486C101.94 195.901 102.775 195.901 103.36 196.319C103.611 196.486 108.626 200.581 113.389 195.567C113.891 195.065 114.727 195.065 115.228 195.483C115.73 195.985 115.73 196.82 115.312 197.322C112.804 199.913 110.381 200.665 108.208 200.665Z" fill="#CC0000"/>
<path d="M110.799 0H183.593C186.435 0 188.775 2.34012 188.775 5.18168V71.875C188.775 74.7166 186.435 77.0567 183.593 77.0567H110.799C107.957 77.0567 105.617 74.7166 105.617 71.875V5.18168C105.617 2.34012 107.957 0 110.799 0Z" fill="white"/>
<path d="M155.595 267.024L58.3968 307.725C55.8059 308.812 52.8808 307.558 51.7943 305.051L28.3932 249.222C27.3067 246.631 28.5603 243.706 31.0676 242.62L128.266 201.835C130.857 200.748 133.782 202.002 134.868 204.509L158.27 260.338C159.356 262.929 158.186 265.937 155.595 267.024Z" fill="#17C690"/>
<path d="M138.562 213.382L32.0469 258.046L37.2825 270.532L143.798 225.868L138.562 213.382Z" fill="#028202"/>
<path d="M103.36 261.424L57.3097 280.73C54.5517 281.9 51.3758 280.563 50.2057 277.805C49.0357 275.047 50.3729 271.871 53.1309 270.701L99.181 251.395C101.939 250.225 105.115 251.562 106.285 254.32C107.455 256.995 106.201 260.254 103.36 261.424Z" fill="#E1DDF8"/>
<path d="M135.121 248.052L134.285 248.387C131.862 249.39 129.02 248.219 128.017 245.796L127.516 244.542C126.513 242.118 127.683 239.277 130.106 238.274L130.942 237.94C133.366 236.937 136.207 238.107 137.21 240.531L137.712 241.784C138.715 244.208 137.545 247.049 135.121 248.052Z" fill="#FF0000"/>
<path d="M121.996 253.568L121.16 253.903C118.737 254.905 115.895 253.735 114.892 251.312L114.391 250.058C113.388 247.634 114.558 244.793 116.981 243.79L117.817 243.456C120.241 242.453 123.082 243.623 124.085 246.046L124.587 247.3C125.59 249.724 124.42 252.565 121.996 253.568Z" fill="#FFA600"/>
<path d="M141.723 254.905L106.037 269.865C105.368 270.116 104.532 269.865 104.282 269.113C104.031 268.444 104.282 267.609 105.034 267.358L140.72 252.398C141.389 252.147 142.225 252.398 142.476 253.15C142.726 253.819 142.392 254.655 141.723 254.905Z" fill="#E1DDF8"/>
<path d="M145.903 264.851L89.7397 288.419C89.0711 288.67 88.2354 288.419 87.9846 287.667C87.7339 286.998 87.9846 286.163 88.7368 285.912L144.9 262.344C145.568 262.093 146.404 262.344 146.655 263.096C146.905 263.764 146.571 264.516 145.903 264.851Z" fill="#E1DDF8"/>
<path d="M82.554 291.428L65.7554 298.448C65.0868 298.699 64.251 298.448 64.0003 297.696C63.7495 297.028 64.0003 296.192 64.7525 295.941L81.5511 288.921C82.2197 288.67 83.0555 288.921 83.3062 289.673C83.5569 290.341 83.2227 291.094 82.554 291.428Z" fill="#E1DDF8"/>
<path d="M143.812 259.836L127.013 266.856C126.345 267.107 125.509 266.857 125.258 266.104C125.007 265.436 125.258 264.6 126.01 264.349L142.809 257.329C143.478 257.078 144.313 257.329 144.564 258.081C144.815 258.75 144.48 259.585 143.812 259.836Z" fill="#E1DDF8"/>
<path d="M120.992 269.447L112.216 273.125C111.548 273.376 110.712 273.125 110.461 272.373C110.21 271.704 110.461 270.868 111.213 270.618L119.989 266.94C120.657 266.689 121.493 266.94 121.744 267.692C121.995 268.277 121.66 269.113 120.992 269.447Z" fill="#E1DDF8"/>
<path d="M104.533 276.301L79.7944 286.664C79.1258 286.915 78.2901 286.664 78.0393 285.912C77.7886 285.243 78.0393 284.408 78.7915 284.157L103.53 273.793C104.198 273.543 105.034 273.793 105.285 274.546C105.536 275.214 105.201 276.05 104.533 276.301Z" fill="#E1DDF8"/>
<path d="M214.564 284.124C212.055 275.269 202.758 262.061 193.903 264.57C193.755 264.643 174.2 265.234 169.256 260.29C163.206 254.239 170.363 245.9 170.658 245.458L170.511 245.605C170.585 245.531 170.585 245.531 170.658 245.458C173.831 240.883 179.956 233.208 168.592 222.582C157.228 211.956 146.16 222.878 146.16 222.878C136.493 233.208 123.949 256.969 138.264 279.992C151.251 300.949 171.692 306.704 187.557 306.704C193.608 306.704 199.068 305.893 203.127 304.712C211.908 302.129 217.073 292.979 214.564 284.124Z" fill="#A0616A"/>
<path d="M146.087 228.707C146.087 228.707 157.156 217.786 168.519 228.412C172.135 231.806 173.98 234.906 174.718 237.636C175.751 233.504 174.939 228.486 168.519 222.509C157.156 211.883 146.087 222.804 146.087 222.804C139.151 230.257 130.665 244.646 131.845 260.733C132.805 247.081 140.036 235.275 146.087 228.707Z" fill="#B8737D"/>
<path d="M271.313 222.508C270.945 215.572 265.189 210.111 258.179 210.111H253.53C252.866 210.111 252.275 210.185 251.685 210.259C247.11 210.259 241.576 212.178 238.255 216.679C236.484 211.587 231.614 207.898 225.858 207.898H221.209C220.545 207.898 219.955 207.971 219.364 208.045C212.649 208.045 203.794 212.104 203.278 222.582V159.122C203.278 151.89 197.375 145.987 190.143 145.987H185.494C178.263 145.987 172.359 151.89 172.359 159.122V222.582V325.964H271.387V224.722V223.246L271.313 222.508Z" fill="#A0616A"/>
<path d="M185.495 151.743H190.144C197.375 151.743 203.279 157.646 203.279 164.878V158.974C203.279 151.743 197.375 145.839 190.144 145.839H185.495C178.263 145.839 172.36 151.743 172.36 158.974V164.878C172.286 157.646 178.19 151.743 185.495 151.743Z" fill="#B8737D"/>
<path d="M271.317 222.508C270.948 215.572 265.192 210.111 258.182 210.111H253.533C252.869 210.111 252.279 210.185 251.688 210.259C247.113 210.259 241.579 212.178 238.258 216.679C236.487 211.587 231.617 207.898 225.861 207.898H221.213C220.548 207.898 219.958 207.971 219.368 208.045C212.653 208.045 203.798 212.104 203.281 222.582V228.485C203.872 218.007 212.653 213.949 219.368 213.949C219.958 213.875 220.622 213.801 221.213 213.801H225.861C231.617 213.801 236.487 217.491 238.258 222.582C241.505 218.081 247.039 216.162 251.688 216.162C252.279 216.089 252.943 216.015 253.533 216.015H258.182C265.192 216.015 270.948 221.549 271.317 228.412V224.722V223.246V222.508Z" fill="#B8737D"/>
<path d="M275.004 308.254H167.047V334.302H275.004V308.254Z" fill="#85CBFF"/>
<path d="M45.7754 84.4114H118.57C121.411 84.4114 123.751 86.7515 123.751 89.5931V156.286C123.751 159.128 121.411 161.468 118.57 161.468H45.7754C42.9339 161.468 40.5938 159.128 40.5938 156.286V89.5931C40.5938 86.6679 42.9339 84.4114 45.7754 84.4114Z" fill="white"/>
<path d="M80.8771 105.891C81.3785 103.216 82.2978 97.7838 81.2949 96.0287C79.9577 93.6886 77.6176 95.1093 76.6983 98.7867C75.7789 102.464 76.1968 108.398 76.1968 108.398C76.1968 108.398 73.9403 94.0229 68.1736 97.4495C62.4068 100.876 73.8567 109.735 73.8567 109.735C73.8567 109.735 68.8422 106.476 65.1648 105.556C61.4875 104.637 59.231 105.974 60.5682 108.314C61.5711 109.986 66.5856 111.824 69.26 112.66L80.8771 105.891Z" fill="#76DE00"/>
<path d="M87.5597 108.983L89.3147 113.579L90.3177 116.337L93.41 124.528L94.4129 127.286L97.5051 135.476L98.5081 138.234L100.765 144.168C101.182 145.422 100.765 146.759 99.5945 147.427L96.5858 149.266C95.4993 149.935 94.0786 149.684 93.1592 148.681L89.064 143.834L87.1418 141.661L73.8533 126.199L71.931 124.026L68.7552 120.265C66.5822 117.758 67.2508 113.914 70.0924 112.159L79.8707 106.392C82.7123 104.553 86.3896 105.89 87.5597 108.983Z" fill="#FF6A00"/>
<path d="M89.3144 113.579L90.3173 116.337L83.882 120.182C83.2134 120.6 82.294 120.349 81.8762 119.68C81.4583 119.012 81.709 118.092 82.3776 117.675L89.3144 113.579Z" fill="#E33D00"/>
<path d="M79.2086 121.268C79.3757 121.603 79.4593 122.02 79.3757 122.355C79.2922 122.689 79.0414 123.023 78.7071 123.274L73.8597 126.116L71.9375 123.943L77.2028 120.85C77.9549 120.349 78.8743 120.516 79.2086 121.268Z" fill="#E33D00"/>
<path d="M93.4112 124.528L94.4141 127.286L87.8117 131.214C87.1431 131.632 86.2237 131.381 85.8059 130.712C85.388 130.044 85.6387 129.124 86.3073 128.706L93.4112 124.528Z" fill="#E33D00"/>
<path d="M97.5899 135.476L98.5928 138.234L89.1488 143.834L87.2266 141.661L97.5899 135.476C97.5064 135.476 97.5064 135.476 97.5899 135.476Z" fill="#E33D00"/>
<path d="M140.801 57.5C135.619 57.2492 129.1 55.8284 125.172 52.9033C115.227 45.3815 124.169 42.9578 127.763 42.9578C132.778 42.9578 140.299 43.0414 145.314 40.952C149.743 39.1133 153.672 30.5051 154.173 24.3205L157.182 20.3088L167.127 42.1221L149.66 57.4164L140.801 57.5Z" fill="#FFA600"/>
<path d="M142.306 67.4454C148.072 68.1975 154.173 67.1946 159.606 64.1023C173.061 56.497 177.742 39.4476 170.136 26.0755C167.044 20.6431 162.364 16.5478 157.015 14.2077L154.257 9.36035L149.41 12.1183L153.588 15.7957C153.588 15.7957 149.66 18.5537 153.755 25.7412C157.934 32.9287 158.686 39.949 154.926 44.7128C151.165 49.4766 143.894 53.5718 139.046 56.3298C135.787 58.3356 128.432 65.6903 142.306 67.4454Z" fill="#FFC800"/>
<path d="M158.522 58.8369C157.937 59.1712 157.269 59.5055 156.683 59.7563C152.421 61.7621 148.577 62.2635 148.41 62.3471C147.657 62.4307 146.905 61.9292 146.822 61.177C146.738 60.4249 147.239 59.6727 147.992 59.5891C148.159 59.5891 162.032 57.4997 164.874 47.2199C167.799 36.6058 164.122 29.6691 164.038 29.5855C163.704 28.9169 163.871 28.0811 164.54 27.6632C165.208 27.3289 166.044 27.4961 166.462 28.1647C166.629 28.499 170.808 36.1044 167.548 47.8885C166.378 52.4016 163.286 56.1625 158.522 58.8369Z" fill="#FFA600"/>
<path d="M153.671 15.7957L157.098 14.2077L154.34 9.36035L149.492 12.1183L153.671 15.7957Z" fill="#FFA600"/>
<path d="M244.984 116.856C258.518 111.801 265.392 96.731 260.337 83.1968C255.282 69.6626 240.212 62.7889 226.678 67.844C213.144 72.8991 206.27 87.9687 211.325 101.503C216.38 115.037 231.45 121.911 244.984 116.856Z" fill="#76DE00"/>
<path d="M233.065 105.472C232.146 105.472 231.227 105.138 230.642 104.469L221.448 95.2762C220.111 93.9389 220.111 91.6824 221.448 90.3452C222.785 89.008 225.042 89.008 226.379 90.3452L232.731 96.6969L245.017 80.4833C246.187 78.9789 248.36 78.6446 249.864 79.8147C251.368 80.9847 251.703 83.1577 250.533 84.6621L235.823 104.052C235.238 104.887 234.319 105.389 233.316 105.389C233.149 105.472 233.149 105.472 233.065 105.472Z" fill="white"/>
</svg>
