<svg width="304" height="312" viewBox="0 0 304 312" fill="none" xmlns="http://www.w3.org/2000/svg">
<circle cx="152" cy="160" r="152" fill="#DDDDDD"/>
<path d="M180.983 258.241H19.7283C18.0659 258.241 16.8653 256.855 17.05 255.193L36.9067 113.788C37.1838 111.941 38.9385 110.371 40.7857 110.371H198.161C200.009 110.371 201.394 111.941 201.117 113.788L180.983 258.241Z" fill="#17C690"/>
<path d="M18.8947 261.473H176.825C178.857 261.473 180.796 259.811 181.073 257.779L183.474 240.877H21.8501C18.5253 240.877 15.3852 243.555 14.9234 246.973L13.7227 255.377C13.1686 258.702 15.4775 261.473 18.8947 261.473Z" fill="#AB5D6A"/>
<path d="M180.984 258.241H282.854C285.44 258.241 287.933 256.116 288.303 253.53L296.061 198.114C296.153 197.19 296.061 196.359 295.691 195.528L267.707 139.834C266.23 136.971 263.367 135.216 259.949 135.216H198.347L180.984 258.241Z" fill="#18BD8A"/>
<path d="M80.269 274.422C91.4252 264.022 93.1381 247.726 84.0948 238.025C75.0516 228.323 58.6766 228.89 47.5204 239.29C36.3642 249.69 34.6513 265.986 43.6946 275.687C52.7379 285.389 69.1128 284.822 80.269 274.422Z" fill="#373B42"/>
<path d="M246.605 274.393C257.761 263.993 259.474 247.697 250.431 237.995C241.387 228.294 225.013 228.86 213.856 239.261C202.7 249.661 200.987 265.956 210.031 275.658C219.074 285.359 235.449 284.793 246.605 274.393Z" fill="#373B42"/>
<path d="M237.972 265.137C243.232 260.232 244.029 252.536 239.751 247.946C235.473 243.357 227.74 243.612 222.479 248.516C217.218 253.421 216.421 261.117 220.699 265.707C224.978 270.296 232.711 270.041 237.972 265.137Z" fill="#DADEF2"/>
<path d="M71.7215 265.134C76.9825 260.229 77.7792 252.533 73.501 247.943C69.2229 243.354 61.4899 243.609 56.2289 248.514C50.968 253.418 50.1713 261.114 54.4494 265.704C58.7276 270.293 66.4606 270.038 71.7215 265.134Z" fill="#DADEF2"/>
<path d="M215.057 196.728H270.656C275.182 196.728 278.599 191.741 276.659 187.954L261.236 157.198C260.404 155.535 258.742 154.612 256.803 154.612H220.968C217.828 154.612 214.873 157.198 214.503 160.338L210.162 191.094C209.701 194.142 211.917 196.728 215.057 196.728Z" fill="#D1E9FF"/>
<path d="M271.586 241.154H289.873L292.643 221.112H284.331C278.79 221.112 273.71 225.545 272.879 231.087L271.586 241.154Z" fill="#FF7D55"/>
<path d="M37.3647 241.154H19.0781L21.8488 221.112H30.1609C35.7023 221.112 39.5813 225.545 38.7501 231.087L37.3647 241.154Z" fill="#FF7D55"/>
<path d="M265.947 261.473H288.205C290.699 261.473 292.915 259.441 293.285 257.04L294.947 245.31C295.317 242.816 293.562 240.877 291.161 240.877H268.903C266.409 240.877 264.193 242.909 263.823 245.31L262.161 257.04C261.791 259.441 263.454 261.473 265.947 261.473Z" fill="#17C690"/>
<path d="M124.179 199.592L119.469 205.41H188.367L189.198 199.592H124.179Z" fill="#D1E9FF"/>
<path d="M101.644 205.41L106.354 199.592H24.8951L24.1562 205.41H101.644Z" fill="#D1E9FF"/>
<path d="M138.405 182.228L128.984 193.773H190.032L191.602 182.228H138.405Z" fill="#EBF5FF"/>
<path d="M120.485 182.228H27.389L25.7266 193.773H111.064L120.485 182.228Z" fill="#EBF5FF"/>
<path d="M123.724 6.927H113.195V20.1346H123.724V6.927Z" fill="#17C690"/>
<path d="M159.832 39.0685L152.352 31.5873L160.571 23.3672C161.218 22.7207 162.141 22.7207 162.788 23.3672L168.052 28.6318C168.699 29.2783 168.699 30.2019 168.052 30.8484L159.832 39.0685Z" fill="#FF7D55"/>
<path d="M77.1734 39.0685L84.6543 31.5873L76.4345 23.3672C75.788 22.7207 74.8644 22.7207 74.218 23.3672L68.9536 28.6318C68.3071 29.2783 68.3071 30.2019 68.9536 30.8484L77.1734 39.0685Z" fill="#FF7D55"/>
<path d="M118.549 128.381C149.663 128.381 174.886 103.157 174.886 72.0414C174.886 40.9257 149.663 15.7014 118.549 15.7014C87.4341 15.7014 62.2109 40.9257 62.2109 72.0414C62.2109 103.157 87.4341 128.381 118.549 128.381Z" fill="#FF7D55"/>
<path d="M118.546 118.222C144.049 118.222 164.724 97.5461 164.724 72.0414C164.724 46.5367 144.049 25.8611 118.546 25.8611C93.0419 25.8611 72.3672 46.5367 72.3672 72.0414C72.3672 97.5461 93.0419 118.222 118.546 118.222Z" fill="white"/>
<path d="M131.292 10.5291H105.71C102.754 10.5291 100.445 8.12774 100.445 5.26456C100.445 2.30902 102.847 0 105.71 0H131.292C134.248 0 136.557 2.40138 136.557 5.26456C136.557 8.12774 134.156 10.5291 131.292 10.5291Z" fill="#FF7D55"/>
<path d="M118.548 79.7074C122.782 79.7074 126.214 76.2752 126.214 72.0414C126.214 67.8076 122.782 64.3755 118.548 64.3755C114.315 64.3755 110.883 67.8076 110.883 72.0414C110.883 76.2752 114.315 79.7074 118.548 79.7074Z" fill="#17C690"/>
<path d="M143.302 54.4929L121.413 76.3824L115.133 70.1019L137.021 48.2124C138.776 46.4575 141.547 46.4575 143.302 48.2124C144.964 49.8749 144.964 52.7381 143.302 54.4929Z" fill="#17C690"/>
<path d="M61.4745 123.763H14.8344C11.0478 123.763 8 120.715 8 116.929C8 113.142 11.0478 110.094 14.8344 110.094H61.4745C65.2611 110.094 68.3089 113.142 68.3089 116.929C68.3089 120.623 65.2611 123.763 61.4745 123.763Z" fill="#17C690"/>
<path d="M69.3261 146.669H22.686C18.8993 146.669 15.8516 143.621 15.8516 139.834C15.8516 136.047 18.8993 133 22.686 133H69.3261C73.1127 133 76.1605 136.047 76.1605 139.834C76.1605 143.621 73.1127 146.669 69.3261 146.669Z" fill="#17C690"/>
</svg>
