<svg width="304" height="315" viewBox="0 0 304 315" fill="none" xmlns="http://www.w3.org/2000/svg">
<circle cx="152" cy="163" r="152" fill="#DDDDDD"/>
<path d="M225.045 82.6186C221.992 82.1822 218.852 82.8805 216.148 84.7134C210.304 88.7284 208.822 96.7585 212.834 102.606C215.189 106.098 222.079 116.135 224.434 119.539C228.446 125.387 236.47 126.871 242.314 122.856C245.018 121.023 246.762 118.23 247.46 115.262C251.734 118.317 257.578 118.579 262.113 115.437C267.957 111.422 269.44 103.392 265.427 97.544C264.817 96.6712 264.206 95.9729 263.421 95.3619C264.294 95.0128 265.253 94.5764 266.038 93.9654C271.882 89.9504 273.364 81.9204 269.352 76.0724C265.34 70.2245 257.316 68.7406 251.472 72.7557C250.6 73.3666 249.902 73.9776 249.292 74.7632C248.943 73.8903 248.507 72.9302 247.896 72.1447C245.89 69.1771 242.925 66.8204 239.698 66.7331C221.817 66.4713 225.045 82.6186 225.045 82.6186Z" fill="#0F994E"/>
<path d="M199.051 127.307C198.266 127.133 197.481 126.696 196.958 125.911C195.911 124.427 196.347 122.42 197.83 121.372L246.586 87.9428C248.069 86.8954 250.075 87.3318 251.121 88.8156C252.168 90.2994 251.732 92.3069 250.249 93.3543L201.493 126.784C200.708 127.307 199.836 127.395 199.051 127.307Z" fill="#318055"/>
<path d="M182.045 55.9971C178.993 54.8624 175.329 55.9971 172.451 58.0046C171.579 58.6156 170.881 59.2266 170.271 60.0121C169.922 59.1393 169.486 58.1792 168.875 57.3936C164.863 51.5457 156.839 50.0619 150.995 54.0769C145.151 58.0919 143.668 66.1219 147.681 71.9699C148.291 72.8427 148.902 73.541 149.687 74.1519C148.814 74.5011 147.855 74.9375 147.07 75.5485C141.226 79.5635 139.744 87.5935 143.756 93.4415C146.896 97.9802 152.478 99.9004 157.536 98.5911C157.1 101.646 157.798 104.788 159.63 107.494C163.642 113.342 171.666 114.826 177.51 110.811C180.999 108.454 191.029 101.559 194.43 99.2021C200.274 95.1871 201.757 87.1571 197.745 81.3091C195.913 78.6034 193.122 76.8577 190.157 76.1594C190.069 76.0722 198.966 62.1942 182.045 55.9971Z" fill="#0F994E"/>
<path d="M198.184 127.133C198.969 127.307 199.841 127.133 200.626 126.609C202.108 125.562 202.457 123.554 201.498 122.07L168.093 73.2792C167.046 71.7954 165.04 71.4463 163.557 72.4064C162.075 73.4538 161.726 75.4613 162.685 76.9451L196.09 125.736C196.614 126.522 197.399 126.958 198.184 127.133Z" fill="#318055"/>
<path d="M250.079 42.3811C251.736 33.6529 245.979 25.1864 237.17 23.528C235.949 23.2662 234.641 23.2662 233.42 23.2662C233.943 22.1315 234.292 20.9968 234.553 19.6876C236.211 10.9593 230.454 2.49286 221.645 0.834485C212.836 -0.82389 204.463 4.93678 202.805 13.7524C202.544 14.9743 202.544 16.2836 202.544 17.5055C201.41 16.9818 200.276 16.6327 198.968 16.3708C190.246 14.7125 181.785 20.4731 180.128 29.2887C178.82 36.0968 182.134 42.7303 187.804 46.1343C184.751 48.491 182.483 51.8077 181.785 55.91C180.128 64.6383 185.885 73.1047 194.694 74.7631C199.927 75.7232 214.842 78.5163 220.075 79.4764C228.797 81.1348 237.257 75.3741 238.914 66.5585C239.699 62.4562 238.827 58.5285 236.821 55.2117C243.363 54.1643 248.77 49.2765 250.079 42.3811Z" fill="#13C464"/>
<path d="M198.271 126.696C196.527 126.347 195.393 124.689 195.655 122.943L212.663 31.907C213.011 30.1613 214.669 29.0266 216.413 29.2885C218.157 29.6376 219.291 31.296 219.03 33.0416L202.022 124.078C201.76 125.911 200.016 127.045 198.271 126.696Z" fill="#318055"/>
<path d="M179.517 64.0273L170.01 35.4858H112.968L103.461 64.0273V195.388C103.461 197.396 105.118 199.054 107.124 199.054H175.941C177.947 199.054 179.604 197.396 179.604 195.388V64.0273" fill="#D1E9FF"/>
<path d="M115.498 25.9719H167.568C168.964 25.9719 170.098 27.1066 170.098 28.5031V35.4858H112.969V28.5031C112.969 27.0193 114.103 25.9719 115.498 25.9719Z" fill="#95CCFF"/>
<path d="M170.271 199.054H112.793C107.647 199.054 103.461 194.864 103.461 189.715V64.0273H179.517V189.802C179.517 194.864 175.417 199.054 170.271 199.054Z" fill="#95CCFF"/>
<path d="M179.517 97.282H103.461V157.42H179.517V97.282Z" fill="#EDF6FF"/>
<path d="M81.0475 77.0326C82.1814 71.0101 84.2747 58.7032 81.9197 54.7755C78.867 49.5385 73.6338 52.6807 71.5405 60.9725C69.4473 69.2644 70.4067 82.7933 70.4067 82.7933C70.4067 82.7933 65.1735 50.324 52.2649 58.0049C39.1819 65.7731 65.1735 85.8482 65.1735 85.8482C65.1735 85.8482 53.8349 78.5164 45.549 76.4216C37.2631 74.3268 32.0299 77.3817 35.0826 82.6187C37.3503 86.4592 48.7761 90.4742 54.7071 92.3944L81.0475 77.0326Z" fill="#6DB812"/>
<path d="M96.2206 83.928L100.145 94.3147L102.5 100.512L109.478 119.016L111.833 125.213L118.811 143.717L121.165 149.914L126.224 163.355C127.271 166.061 126.137 169.203 123.608 170.687L116.717 174.79C114.188 176.273 110.961 175.75 109.042 173.568L99.7094 162.657L95.4356 157.682L65.3447 122.594L61.0709 117.619L53.8317 109.153C48.9473 103.479 50.3429 94.6638 56.7971 90.8234L78.7766 77.7309C85.2309 73.9778 93.604 76.8581 96.2206 83.928Z" fill="#FF6A00"/>
<path d="M100.147 94.3145L102.502 100.512L88.0238 109.153C86.4539 110.113 84.4478 109.589 83.5756 108.018C82.7034 106.447 83.1395 104.439 84.7095 103.566L100.147 94.3145Z" fill="#D55800"/>
<path d="M77.3805 111.684C77.8166 112.469 77.9038 113.342 77.7293 114.128C77.5549 114.913 77.0316 115.699 76.2466 116.135L65.3441 122.594L61.0703 117.619L72.9322 110.549C74.5022 109.589 76.5083 110.113 77.3805 111.684Z" fill="#D55800"/>
<path d="M109.482 119.103L111.837 125.3L96.9219 134.115C95.352 134.988 93.3459 134.552 92.4737 132.981C91.5143 131.41 92.0376 129.402 93.6076 128.529L109.482 119.103Z" fill="#D55800"/>
<path d="M118.811 143.804L121.166 150.001L99.7972 162.744L95.5234 157.769L118.724 143.979C118.724 143.891 118.811 143.804 118.811 143.804Z" fill="#FF7D55"/>
<path d="M187.021 111.771C187.021 99.5513 184.841 92.3068 170.885 88.2045C159.547 84.8878 154.401 90.9976 146.115 90.9976C136.521 90.9976 132.509 86.2843 121.781 90.2993C112.71 93.7906 106.953 100.599 106.953 111.684C106.953 126.347 114.367 156.983 129.805 157.158C140.184 157.245 139.835 152.096 146.987 152.096C153.354 152.096 152.744 157.158 164.169 157.158C180.741 157.158 187.021 126.958 187.021 111.771Z" fill="#13C464"/>
<path d="M146.463 102.519C146.463 102.519 136.259 92.0449 145.068 76.1594C145.33 75.6357 146.027 75.2866 146.638 75.4612L151.348 76.2467C152.394 76.4213 152.918 77.6433 152.307 78.5161C149.865 82.0947 145.591 90.4738 148.993 101.384L146.463 102.519Z" fill="#403790"/>
<path d="M146.198 104.265C139.482 104.265 134.336 100.075 134.249 99.9879C133.29 99.1151 133.115 97.7185 133.988 96.6711C134.86 95.711 136.255 95.5364 137.302 96.4093C137.738 96.7584 146.896 104.09 155.531 95.1C156.403 94.1399 157.886 94.1399 158.845 95.0128C159.805 95.8856 159.805 97.3694 158.933 98.3295C154.572 102.868 150.123 104.265 146.198 104.265Z" fill="#73AF2A"/>
<path d="M211.177 146.509C201.844 146.073 190.157 143.542 183.179 138.218C165.299 124.689 181.435 120.237 187.802 120.325C196.785 120.412 210.304 120.499 219.288 116.746C227.225 113.517 234.203 97.9802 235.162 86.808L240.57 79.5635L258.45 118.754L227.138 146.248L211.177 146.509Z" fill="#E68D08"/>
<path d="M213.966 164.49C224.345 165.799 235.248 163.966 245.104 158.38C269.177 144.764 277.724 114.128 264.118 90.0375C258.536 80.1746 250.163 72.9301 240.568 68.7405L235.684 60.0122L226.962 64.9873L234.55 71.5335C234.55 71.5335 227.485 76.596 234.899 89.4265C242.313 102.344 243.708 115 237.08 123.554C230.451 132.108 217.281 139.527 208.559 144.502C202.279 148.081 189.109 161.26 213.966 164.49Z" fill="#FCC929"/>
<path d="M243.102 148.954C242.055 149.565 240.921 150.088 239.787 150.699C232.112 154.278 225.222 155.238 224.96 155.325C223.564 155.5 222.343 154.54 222.169 153.143C221.994 151.747 222.954 150.525 224.349 150.35C224.698 150.263 249.556 146.684 254.702 128.006C260.022 108.891 253.306 96.4093 253.219 96.322C252.521 95.1 252.958 93.6162 254.179 92.918C255.4 92.2197 256.882 92.6561 257.58 93.8781C257.929 94.4891 265.43 108.105 259.499 129.402C257.231 137.345 251.562 144.066 243.102 148.954Z" fill="#E68D08"/>
<path d="M234.463 71.5334L240.481 68.7404L235.597 60.0994L226.875 64.9872L234.463 71.5334Z" fill="#403790"/>
<path d="M242.753 136.908C238.218 141.273 230.979 141.273 226.443 136.908C221.908 132.544 214.669 132.544 210.133 136.908C205.598 141.273 198.359 141.273 193.823 136.908C189.288 132.544 182.048 132.544 177.513 136.908C172.978 141.273 165.738 141.273 161.203 136.908C156.667 132.544 149.428 132.544 144.893 136.908C140.357 141.273 133.118 141.273 128.583 136.908C124.047 132.544 116.808 132.544 112.272 136.908C107.737 141.273 100.498 141.273 95.9623 136.908C91.4268 132.544 84.1876 132.544 79.6521 136.908L76.1633 140.312C73.2851 143.105 71.8895 147.208 72.4129 151.223L95.7006 292.796C96.3111 297.073 99.9744 300.302 104.335 300.302H169.227H234.119C238.48 300.302 242.143 297.073 242.753 292.796L266.041 151.223C266.565 147.208 265.169 143.105 262.291 140.312L258.802 136.908C254.441 132.457 247.289 132.457 242.753 136.908Z" fill="#FFA875"/>
<path d="M72.9323 152.532C73.4557 150.175 74.6767 147.993 76.4211 146.248L79.9099 142.844C84.4454 138.48 91.6846 138.48 96.2201 142.844C100.756 147.208 107.995 147.208 112.53 142.844C117.066 138.48 124.305 138.48 128.84 142.844C133.376 147.208 140.615 147.208 145.15 142.844C149.686 138.48 156.925 138.48 161.461 142.844C165.996 147.208 173.235 147.208 177.771 142.844C182.306 138.48 189.545 138.48 194.081 142.844C198.616 147.208 205.856 147.208 210.391 142.844C214.926 138.48 222.166 138.48 226.701 142.844C231.237 147.208 238.476 147.208 243.011 142.844C247.547 138.48 254.786 138.48 259.321 142.844L262.81 146.248C264.555 147.993 265.776 150.175 266.299 152.532L266.561 151.136C267.084 147.121 265.688 143.018 262.81 140.225L259.321 136.821C254.786 132.457 247.547 132.457 243.011 136.821C238.476 141.185 231.237 141.185 226.701 136.821C222.166 132.457 214.926 132.457 210.391 136.821C205.856 141.185 198.616 141.185 194.081 136.821C189.545 132.457 182.306 132.457 177.771 136.821C173.235 141.185 165.996 141.185 161.461 136.821C156.925 132.457 149.686 132.457 145.15 136.821C140.615 141.185 133.376 141.185 128.84 136.821C124.305 132.457 117.066 132.457 112.53 136.821C107.995 141.185 100.756 141.185 96.2201 136.821C91.6846 132.457 84.4454 132.457 79.9099 136.821L76.4211 140.225C73.5429 143.018 72.1474 147.121 72.6707 151.136L72.9323 152.532Z" fill="#FFC29E"/>
<path d="M138.964 182.558H74.8569C59.0701 182.558 46.3359 195.301 46.3359 211.099V246.798H167.572V211.099C167.484 195.388 154.75 182.558 138.964 182.558Z" fill="#AB5D6A"/>
<path d="M165.472 261.112L153.262 303.881H118.461L110.437 282.496H103.372L94.737 303.881H60.5467L48.3359 261.112" fill="#AB5D6A"/>
<path d="M167.482 261.112H46.2458C42.3209 261.112 39.0938 257.883 39.0938 253.955C39.0938 250.027 42.3209 246.798 46.2458 246.798H167.482C171.406 246.798 174.634 250.027 174.634 253.955C174.634 257.883 171.406 261.112 167.482 261.112Z" fill="#EDC5AF"/>
<path d="M60.5526 245.139C58.5465 245.139 56.9766 243.568 56.9766 241.561V211.099C56.9766 201.236 65.0008 193.293 74.7694 193.293H138.963C148.819 193.293 156.756 201.323 156.756 211.099V241.561C156.756 243.568 155.186 245.139 153.18 245.139C151.174 245.139 149.604 243.568 149.604 241.561V211.186C149.604 205.251 144.807 200.45 138.876 200.45H74.8567C68.9257 200.45 64.1286 205.251 64.1286 211.186V241.561C64.1286 243.481 62.5586 245.139 60.5526 245.139Z" fill="#BE707D"/>
<path d="M53.3984 246.798C53.3984 229.952 62.9926 216.249 74.7673 216.249C86.542 216.249 96.1362 229.952 96.1362 246.798H53.3984Z" fill="#EEECFF"/>
<path d="M117.594 246.798C117.594 229.952 127.188 216.249 138.963 216.249C150.737 216.249 160.332 229.952 160.332 246.798H117.594Z" fill="#EEECFF"/>
</svg>
